<svg width="37" height="37" viewBox="0 0 37 37" fill="none" xmlns="http://www.w3.org/2000/svg">
<path d="M32 23.866C32 28.9621 29.0704 32 24.1565 32H22.55C21.8075 32 21.2 31.3701 21.2 30.6V22.522C21.2 22.144 21.497 21.822 21.8615 21.822L24.2375 21.78C24.4265 21.766 24.5885 21.6261 24.629 21.43L25.1015 18.756C25.1107 18.6954 25.1071 18.6334 25.0909 18.5744C25.0748 18.5155 25.0465 18.4608 25.008 18.4142C24.9695 18.3676 24.9217 18.3302 24.8679 18.3046C24.8141 18.279 24.7557 18.2659 24.6965 18.266L21.821 18.308C21.443 18.308 21.146 18 21.1325 17.622L21.0785 14.1921C21.0785 13.968 21.254 13.772 21.4835 13.772L24.7235 13.716C24.953 13.716 25.1285 13.5341 25.1285 13.2961L25.0745 9.93601C25.0745 9.69801 24.899 9.51601 24.6695 9.51601L21.0245 9.57201C20.4924 9.58039 19.9671 9.69758 19.4788 9.91686C18.9905 10.1361 18.5486 10.4532 18.1787 10.8499C17.8087 11.2466 17.5179 11.715 17.3229 12.2285C17.1278 12.7419 17.0323 13.2903 17.042 13.8421L17.1095 17.6921C17.123 18.084 16.826 18.3921 16.448 18.406L14.828 18.4341C14.5985 18.4341 14.423 18.616 14.423 18.854L14.4635 21.514C14.4635 21.7521 14.639 21.9341 14.8685 21.9341L16.4885 21.906C16.8665 21.906 17.1635 22.214 17.177 22.5921L17.2985 30.572C17.312 31.356 16.7045 32 15.9485 32H12.8435C7.9295 32 5 28.9621 5 23.8521V12.1341C5 7.038 7.9295 4 12.8435 4H24.1565C29.0704 4 32 7.038 32 12.1341V23.866Z" fill="#969696"/>
</svg>
